# xmcd
#
# Track frame offsets:
#	190
#	9792
#	20655
#	29122
#	40740
#	51795
#	62050
#	72080
#	81345
#	92065
#	102335
#	112737
#	122732
#	130877
#	140940
#	151117
#	161245
#	172380
#	180635
#	191210
#
# Disc length: 2704 seconds
#
# Revision: 1
# Processed by: cddbd v1.5.1PL0 Copyright (c) Steve Scherf et al.
# Submitted via: MusicWizard 7.1.1b
#
DISCID=1c0a8e14
DTITLE=Various Artist - Hillbilly Rock - 20 Rare Tracks From The Hickory Vaults
DYEAR=2001
DGENRE=Rockabilly
TTITLE0=Al Terry - Watch Dog
TTITLE1=Jack Turner - Everybody´s Rockin´ But Me
TTITLE2=Joe Melson - Oh Yeah
TTITLE3=Al Terry - Roughneck Blues
TTITLE4=McCormick Brothers - Red Hen Boogie
TTITLE5=Wiley Barkdull - Too Many
TTITLE6=Ernie Chaffin - Get Me On Your Mind
TTITLE7=Wiley Barkdull - Hey Honey
TTITLE8=Melvin Endsley - Started Out A Walkin´
TTITLE9=Rusty And Dough Kershaw - Hey Mae
TTITLE10=Al Terry - Good Deal Lucille
TTITLE11=Jack Turner - Lookin´ For Love
TTITLE12=Joe Melson - What´s The Use (I Still Love You)
TTITLE13=Wiley Barkdull - I Ain´t Gonna Waste My Time
TTITLE14=McCormick Brothers - The Billy Goat Boogie
TTITLE15=Wiley Barkdull - I´ve Got A Brand New Baby
TTITLE16=Bob Gallion - Start All Over
TTITLE17=Wiley Barkdull - Lonesome Journey
TTITLE18=Rusty And Doug Kershaw - Hey You There
TTITLE19=Bill Carlisle - No Help Wanted
EXTD=
EXTT0=
EXTT1=
EXTT2=
EXTT3=
EXTT4=
EXTT5=
EXTT6=
EXTT7=
EXTT8=
EXTT9=
EXTT10=
EXTT11=
EXTT12=
EXTT13=
EXTT14=
EXTT15=
EXTT16=
EXTT17=
EXTT18=
EXTT19=
PLAYORDER=
